<mxfile host="app.diagrams.net" modified="2022-08-18T14:44:35.008Z" agent="5.0 (Windows NT 10.0; Win64; x64) AppleWebKit/537.36 (KHTML, like Gecko) Chrome/104.0.0.0 Safari/537.36" etag="bTzk0CxBsN3_WifUXYfY" version="20.2.4" type="github" pages="2">
  <diagram id="3JKClkoAWJIU7tLhZZ0c" name="Page-1">
    <mxGraphModel dx="1038" dy="579" grid="1" gridSize="10" guides="1" tooltips="1" connect="1" arrows="1" fold="1" page="1" pageScale="1" pageWidth="827" pageHeight="1169" math="0" shadow="0">
      <root>
        <mxCell id="0" />
        <mxCell id="1" parent="0" />
        <mxCell id="EtReOd7Ml7j6U1EKV9bC-3" value="" style="edgeStyle=orthogonalEdgeStyle;rounded=0;orthogonalLoop=1;jettySize=auto;html=1;" edge="1" parent="1" source="EtReOd7Ml7j6U1EKV9bC-1">
          <mxGeometry relative="1" as="geometry">
            <mxPoint x="230" y="270" as="targetPoint" />
          </mxGeometry>
        </mxCell>
        <mxCell id="EtReOd7Ml7j6U1EKV9bC-1" value="Entry&lt;br&gt;" style="ellipse;whiteSpace=wrap;html=1;fillColor=#0050ef;fontColor=#ffffff;strokeColor=#001DBC;" vertex="1" parent="1">
          <mxGeometry x="70" y="230" width="80" height="80" as="geometry" />
        </mxCell>
        <mxCell id="EtReOd7Ml7j6U1EKV9bC-6" value="" style="edgeStyle=orthogonalEdgeStyle;rounded=0;orthogonalLoop=1;jettySize=auto;html=1;" edge="1" parent="1" source="EtReOd7Ml7j6U1EKV9bC-4" target="EtReOd7Ml7j6U1EKV9bC-5">
          <mxGeometry relative="1" as="geometry" />
        </mxCell>
        <mxCell id="EtReOd7Ml7j6U1EKV9bC-4" value="Splash Screen" style="rounded=0;whiteSpace=wrap;html=1;fillColor=#dae8fc;strokeColor=#6c8ebf;" vertex="1" parent="1">
          <mxGeometry x="230" y="240" width="120" height="60" as="geometry" />
        </mxCell>
        <mxCell id="WXnOiru8IFijh5b0T05g-3" value="" style="edgeStyle=none;rounded=0;orthogonalLoop=1;jettySize=auto;html=1;dashed=1;startArrow=none;startFill=0;strokeColor=default;" edge="1" parent="1" source="EtReOd7Ml7j6U1EKV9bC-5" target="WXnOiru8IFijh5b0T05g-1">
          <mxGeometry relative="1" as="geometry" />
        </mxCell>
        <mxCell id="EtReOd7Ml7j6U1EKV9bC-5" value="Currently Pending Tasks" style="rounded=0;whiteSpace=wrap;html=1;fillColor=#dae8fc;strokeColor=#6c8ebf;" vertex="1" parent="1">
          <mxGeometry x="380" y="240" width="120" height="60" as="geometry" />
        </mxCell>
        <mxCell id="EtReOd7Ml7j6U1EKV9bC-9" value="" style="rounded=0;orthogonalLoop=1;jettySize=auto;html=1;strokeColor=default;startArrow=classic;startFill=0;" edge="1" parent="1" source="EtReOd7Ml7j6U1EKV9bC-5" target="EtReOd7Ml7j6U1EKV9bC-8">
          <mxGeometry relative="1" as="geometry" />
        </mxCell>
        <mxCell id="EtReOd7Ml7j6U1EKV9bC-24" value="" style="edgeStyle=none;rounded=0;orthogonalLoop=1;jettySize=auto;html=1;dashed=1;startArrow=none;startFill=0;strokeColor=default;" edge="1" parent="1" source="EtReOd7Ml7j6U1EKV9bC-8" target="EtReOd7Ml7j6U1EKV9bC-23">
          <mxGeometry relative="1" as="geometry" />
        </mxCell>
        <mxCell id="EtReOd7Ml7j6U1EKV9bC-8" value="Complete Task" style="rounded=0;whiteSpace=wrap;html=1;fillColor=#dae8fc;strokeColor=#6c8ebf;" vertex="1" parent="1">
          <mxGeometry x="380" y="370" width="120" height="60" as="geometry" />
        </mxCell>
        <mxCell id="EtReOd7Ml7j6U1EKV9bC-12" value="" style="edgeStyle=none;rounded=0;orthogonalLoop=1;jettySize=auto;html=1;startArrow=none;startFill=0;strokeColor=default;dashed=1;" edge="1" parent="1" source="EtReOd7Ml7j6U1EKV9bC-5" target="EtReOd7Ml7j6U1EKV9bC-11">
          <mxGeometry relative="1" as="geometry" />
        </mxCell>
        <mxCell id="EtReOd7Ml7j6U1EKV9bC-11" value="Task Added" style="rounded=1;whiteSpace=wrap;html=1;fillColor=#fff2cc;strokeColor=#d6b656;arcSize=26;" vertex="1" parent="1">
          <mxGeometry x="560" y="80" width="130" height="80" as="geometry" />
        </mxCell>
        <mxCell id="EtReOd7Ml7j6U1EKV9bC-14" value="Can Switch Between" style="text;html=1;align=center;verticalAlign=middle;resizable=0;points=[];autosize=1;strokeColor=none;fillColor=none;" vertex="1" parent="1">
          <mxGeometry x="360" y="320" width="130" height="30" as="geometry" />
        </mxCell>
        <mxCell id="EtReOd7Ml7j6U1EKV9bC-15" value="When Add&lt;br&gt;Button Clicked" style="text;html=1;align=center;verticalAlign=middle;resizable=0;points=[];autosize=1;strokeColor=none;fillColor=none;" vertex="1" parent="1">
          <mxGeometry x="440" y="450" width="100" height="40" as="geometry" />
        </mxCell>
        <mxCell id="EtReOd7Ml7j6U1EKV9bC-17" value="" style="edgeStyle=none;rounded=0;orthogonalLoop=1;jettySize=auto;html=1;dashed=1;startArrow=none;startFill=0;strokeColor=default;" edge="1" parent="1" source="EtReOd7Ml7j6U1EKV9bC-8">
          <mxGeometry relative="1" as="geometry">
            <mxPoint x="610" y="327.6595744680851" as="targetPoint" />
          </mxGeometry>
        </mxCell>
        <mxCell id="EtReOd7Ml7j6U1EKV9bC-22" value="When Delete&lt;br&gt;Button Clicked" style="text;html=1;align=center;verticalAlign=middle;resizable=0;points=[];autosize=1;strokeColor=none;fillColor=none;" vertex="1" parent="1">
          <mxGeometry x="510" y="290" width="100" height="40" as="geometry" />
        </mxCell>
        <mxCell id="EtReOd7Ml7j6U1EKV9bC-23" value="Task Added" style="rounded=1;whiteSpace=wrap;html=1;fillColor=#fff2cc;strokeColor=#d6b656;" vertex="1" parent="1">
          <mxGeometry x="520" y="490" width="130" height="80" as="geometry" />
        </mxCell>
        <mxCell id="EtReOd7Ml7j6U1EKV9bC-25" value="When Add&lt;br&gt;Button Clicked" style="text;html=1;align=center;verticalAlign=middle;resizable=0;points=[];autosize=1;strokeColor=none;fillColor=none;" vertex="1" parent="1">
          <mxGeometry x="430" y="180" width="100" height="40" as="geometry" />
        </mxCell>
        <mxCell id="WXnOiru8IFijh5b0T05g-5" value="" style="edgeStyle=none;rounded=0;orthogonalLoop=1;jettySize=auto;html=1;dashed=1;startArrow=none;startFill=0;strokeColor=default;" edge="1" parent="1" source="WXnOiru8IFijh5b0T05g-1" target="WXnOiru8IFijh5b0T05g-4">
          <mxGeometry relative="1" as="geometry" />
        </mxCell>
        <mxCell id="WXnOiru8IFijh5b0T05g-7" value="" style="edgeStyle=none;rounded=0;orthogonalLoop=1;jettySize=auto;html=1;dashed=1;startArrow=none;startFill=0;strokeColor=#FF0080;" edge="1" parent="1" source="WXnOiru8IFijh5b0T05g-1" target="EtReOd7Ml7j6U1EKV9bC-5">
          <mxGeometry relative="1" as="geometry">
            <Array as="points">
              <mxPoint x="580" y="230" />
            </Array>
          </mxGeometry>
        </mxCell>
        <mxCell id="WXnOiru8IFijh5b0T05g-1" value="&#xa;&lt;span style=&quot;color: rgb(0, 0, 0); font-family: Helvetica; font-size: 12px; font-style: normal; font-variant-ligatures: normal; font-variant-caps: normal; font-weight: 400; letter-spacing: normal; orphans: 2; text-align: center; text-indent: 0px; text-transform: none; widows: 2; word-spacing: 0px; -webkit-text-stroke-width: 0px; background-color: rgb(248, 249, 250); text-decoration-thickness: initial; text-decoration-style: initial; text-decoration-color: initial; float: none; display: inline !important;&quot;&gt;Dialog Box to Delete&lt;/span&gt;&#xa;&#xa;" style="rhombus;whiteSpace=wrap;html=1;fillColor=#f8cecc;strokeColor=#b85450;" vertex="1" parent="1">
          <mxGeometry x="600" y="260" width="110" height="100" as="geometry" />
        </mxCell>
        <mxCell id="WXnOiru8IFijh5b0T05g-4" value="Task Deleted" style="rounded=1;whiteSpace=wrap;html=1;fillColor=#fff2cc;strokeColor=#d6b656;" vertex="1" parent="1">
          <mxGeometry x="740" y="280" width="120" height="60" as="geometry" />
        </mxCell>
        <mxCell id="WXnOiru8IFijh5b0T05g-6" value="yes" style="text;html=1;align=center;verticalAlign=middle;resizable=0;points=[];autosize=1;strokeColor=none;fillColor=none;" vertex="1" parent="1">
          <mxGeometry x="700" y="280" width="40" height="30" as="geometry" />
        </mxCell>
        <mxCell id="WXnOiru8IFijh5b0T05g-9" value="" style="edgeStyle=none;rounded=0;orthogonalLoop=1;jettySize=auto;html=1;dashed=1;startArrow=none;startFill=0;strokeColor=#FF66B3;exitX=0;exitY=1;exitDx=0;exitDy=0;entryX=1.019;entryY=0.622;entryDx=0;entryDy=0;entryPerimeter=0;" edge="1" parent="1" source="WXnOiru8IFijh5b0T05g-1" target="EtReOd7Ml7j6U1EKV9bC-8">
          <mxGeometry relative="1" as="geometry">
            <mxPoint x="646.141975308642" y="416.23456790123464" as="sourcePoint" />
            <mxPoint x="520" y="386.1538461538462" as="targetPoint" />
            <Array as="points">
              <mxPoint x="600" y="407" />
            </Array>
          </mxGeometry>
        </mxCell>
        <mxCell id="WXnOiru8IFijh5b0T05g-10" value="Cancel&lt;br&gt;" style="text;html=1;align=center;verticalAlign=middle;resizable=0;points=[];autosize=1;strokeColor=none;fillColor=none;" vertex="1" parent="1">
          <mxGeometry x="590" y="230" width="60" height="30" as="geometry" />
        </mxCell>
        <mxCell id="WXnOiru8IFijh5b0T05g-11" value="Cancel&lt;br&gt;" style="text;html=1;align=center;verticalAlign=middle;resizable=0;points=[];autosize=1;strokeColor=none;fillColor=none;" vertex="1" parent="1">
          <mxGeometry x="595" y="350" width="60" height="30" as="geometry" />
        </mxCell>
      </root>
    </mxGraphModel>
  </diagram>
  <diagram id="mkT4GCr6XS4n311No6M_" name="Page-2">
    <mxGraphModel dx="1887" dy="1053" grid="1" gridSize="10" guides="1" tooltips="1" connect="1" arrows="1" fold="1" page="1" pageScale="1" pageWidth="827" pageHeight="1169" math="0" shadow="0">
      <root>
        <mxCell id="0" />
        <mxCell id="1" parent="0" />
      </root>
    </mxGraphModel>
  </diagram>
</mxfile>
